/* XPM */
static char * quantix16_xpm[] = {
"16 16 112 2",
"  	c None",
". 	c #ED8A8A",
"+ 	c #D85D5D",
"@ 	c #E98B8B",
"# 	c #EF9191",
"$ 	c #E19F9F",
"% 	c #DC9D9D",
"& 	c #E99393",
"* 	c #FDDCDC",
"= 	c #E77272",
"- 	c #D96E6E",
"; 	c #DB6868",
"> 	c #D63B3B",
", 	c #DE8989",
"' 	c #F4B5B5",
") 	c #DA8989",
"! 	c #C53A3A",
"~ 	c #CC6969",
"{ 	c #C66E6E",
"] 	c #CD7171",
"^ 	c #F5DADA",
"/ 	c #E66F6F",
"( 	c #E6C4C4",
"_ 	c #EDB9B9",
": 	c #A83636",
"< 	c #A51A1A",
"[ 	c #B90E0E",
"} 	c #AE1A1A",
"| 	c #A73535",
"1 	c #E6BCBC",
"2 	c #DFC6C6",
"3 	c #C46D6D",
"4 	c #DF6C6C",
"5 	c #CE5B5B",
"6 	c #AC1717",
"7 	c #B36868",
"8 	c #C29B9B",
"9 	c #B96969",
"0 	c #C21818",
"a 	c #D05A5A",
"b 	c #BC6B6B",
"c 	c #DF9797",
"d 	c #F09A9A",
"e 	c #CC6161",
"f 	c #AF1212",
"g 	c #B57474",
"h 	c #C37878",
"i 	c #C61212",
"j 	c #B65F5F",
"k 	c #D79C9C",
"l 	c #C89494",
"m 	c #D02929",
"n 	c #B86D6D",
"o 	c #AC2222",
"p 	c #CDAFAF",
"q 	c #D6C6C6",
"r 	c #D1B6B6",
"s 	c #C4A0A0",
"t 	c #CE2424",
"u 	c #B07171",
"v 	c #9D2727",
"w 	c #F0E5E5",
"x 	c #E79A9A",
"y 	c #D39393",
"z 	c #BF5F5F",
"A 	c #BE1414",
"B 	c #BA2626",
"C 	c #D42C2C",
"D 	c #D21D1D",
"E 	c #A95E5E",
"F 	c #BE9494",
"G 	c #CB9898",
"H 	c #D26C6C",
"I 	c #C15858",
"J 	c #C91515",
"K 	c #C65B5B",
"L 	c #C88C8C",
"M 	c #D23636",
"N 	c #E91515",
"O 	c #BE5959",
"P 	c #AA6B6B",
"Q 	c #C96A6A",
"R 	c #F3CECE",
"S 	c #DFB9B9",
"T 	c #AF4444",
"U 	c #BF2121",
"V 	c #CB0B0B",
"W 	c #C52727",
"X 	c #A64343",
"Y 	c #D7BCBC",
"Z 	c #E8D1D1",
"` 	c #A26868",
" .	c #E6D4D4",
"..	c #BF6D6D",
"+.	c #C37070",
"@.	c #BC6969",
"#.	c #AA3D3D",
"$.	c #B88787",
"%.	c #C9ACAC",
"&.	c #B38787",
"*.	c #953D3D",
"=.	c #A86969",
"-.	c #AA7070",
";.	c #A16D6D",
">.	c #DED3D3",
",.	c #BF8B8B",
"'.	c #D4A3A3",
").	c #CDA1A1",
"!.	c #B88D8D",
"~.	c #B68585",
"{.	c #9F5C5C",
"].	c #B28787",
"                                ",
"              . + @             ",
"            # $   % &           ",
"    * = - ; > , ' ) ! ~ { ] ^   ",
"    / (   _ : < [ } | 1   2 3   ",
"    4     5 6 7 8 9 0 a     b   ",
"    c d e f g       h i j k l   ",
"      m n o p   q r s t u v w   ",
"    x y z A b     B C D E F G   ",
"    H     I J K L M N O     P   ",
"    Q R   S T U V W X Y   Z `   ",
"     ...+.@.#.$.%.&.*.=.-.;.>.  ",
"            ,.'.  ).!.          ",
"              ~.{.].            ",
"                                ",
"                                "};
