/* XPM */
static char * quantix32_xpm[] = {
"32 32 354 2",
"  	c None",
". 	c #F65D5D",
"+ 	c #F45E5E",
"@ 	c #F75656",
"# 	c #D90C0C",
"$ 	c #C43434",
"% 	c #C43232",
"& 	c #D50D0D",
"* 	c #F15B5B",
"= 	c #F55454",
"- 	c #D01414",
"; 	c #C91212",
"> 	c #EC5A5A",
", 	c #F48A8A",
"' 	c #D80D0D",
") 	c #CD0E0E",
"! 	c #ED9090",
"~ 	c #E72525",
"{ 	c #BD6666",
"] 	c #B75F5F",
"^ 	c #D92929",
"/ 	c #FE8989",
"( 	c #F53F3F",
"_ 	c #F03434",
": 	c #ED2E2E",
"< 	c #E92A2A",
"[ 	c #E82E2E",
"} 	c #EE3333",
"| 	c #E31717",
"1 	c #E66D6D",
"2 	c #DB6C6C",
"3 	c #D01616",
"4 	c #DA3535",
"5 	c #D02F2F",
"6 	c #CD2A2A",
"7 	c #CD2D2D",
"8 	c #CE3232",
"9 	c #D03E3E",
"0 	c #E48686",
"a 	c #F42E2E",
"b 	c #D61212",
"c 	c #C14545",
"d 	c #A93838",
"e 	c #BC6060",
"f 	c #E02323",
"g 	c #D43232",
"h 	c #C82A2A",
"i 	c #D11C1C",
"j 	c #E44242",
"k 	c #EB8888",
"l 	c #E98A8A",
"m 	c #DE4444",
"n 	c #C71C1C",
"o 	c #BD2A2A",
"p 	c #C63030",
"q 	c #CA2323",
"r 	c #B06161",
"s 	c #943838",
"t 	c #A84747",
"u 	c #AA1313",
"v 	c #C32929",
"w 	c #F02B2B",
"x 	c #CB3030",
"y 	c #D62020",
"z 	c #802525",
"A 	c #BC1818",
"B 	c #BE1313",
"C 	c #BE1818",
"D 	c #822424",
"E 	c #C12020",
"F 	c #A43535",
"G 	c #BB2525",
"H 	c #DF1818",
"I 	c #F58989",
"J 	c #B91818",
"K 	c #9E3838",
"L 	c #AD2828",
"M 	c #B62828",
"N 	c #BA2828",
"O 	c #BD2929",
"P 	c #BE2929",
"Q 	c #BA2929",
"R 	c #AB3737",
"S 	c #A51717",
"T 	c #E69090",
"U 	c #A71A1A",
"V 	c #DE6060",
"W 	c #E03F3F",
"X 	c #D65D5D",
"Y 	c #B31313",
"Z 	c #AB2121",
"` 	c #BD2222",
" .	c #C22525",
"..	c #BE2323",
"+.	c #B62020",
"@.	c #B92020",
"#.	c #C52323",
"$.	c #CF2424",
"%.	c #CD2121",
"&.	c #C32222",
"*.	c #B51212",
"=.	c #C46464",
"-.	c #B54646",
";.	c #B55757",
">.	c #D66868",
",.	c #E73B3B",
"'.	c #B32525",
").	c #B42121",
"!.	c #BD2727",
"~.	c #B82020",
"{.	c #9C2D2D",
"].	c #A32E2E",
"^.	c #C72020",
"/.	c #D42727",
"(.	c #D02222",
"_.	c #B62525",
":.	c #B74141",
"<.	c #B05D5D",
"[.	c #E01B1B",
"}.	c #CD2727",
"|.	c #B12020",
"1.	c #B51E1E",
"2.	c #8E4B4B",
"3.	c #954D4D",
"4.	c #C81E1E",
"5.	c #CF2020",
"6.	c #AA2525",
"7.	c #CA1A1A",
"8.	c #F47979",
"9.	c #F48686",
"0.	c #D61616",
"a.	c #B21E1E",
"b.	c #BA2A2A",
"c.	c #BF1F1F",
"d.	c #904242",
"e.	c #9A4444",
"f.	c #D71F1F",
"g.	c #DF2A2A",
"h.	c #BC1F1F",
"i.	c #AB1414",
"j.	c #D98282",
"k.	c #CC7373",
"l.	c #961A1A",
"m.	c #C57171",
"n.	c #DE1E1E",
"o.	c #F08282",
"p.	c #D21010",
"q.	c #812727",
"r.	c #A72828",
"s.	c #C92626",
"t.	c #A32020",
"u.	c #B71F1F",
"v.	c #EB2525",
"w.	c #C72828",
"x.	c #732A2A",
"y.	c #A01010",
"z.	c #D37C7C",
"A.	c #AA2626",
"B.	c #A86868",
"C.	c #BE3737",
"D.	c #D02020",
"E.	c #B52020",
"F.	c #C92121",
"G.	c #9A3B3B",
"H.	c #A73C3C",
"I.	c #E72020",
"J.	c #D72020",
"K.	c #A01F1F",
"L.	c #B32E2E",
"M.	c #953434",
"N.	c #DA0000",
"O.	c #CD4040",
"P.	c #BA1E1E",
"Q.	c #CA1E1E",
"R.	c #9C4747",
"S.	c #A84848",
"T.	c #E71D1D",
"U.	c #DB1D1D",
"V.	c #990000",
"W.	c #E14141",
"X.	c #B92323",
"Y.	c #CB1F1F",
"Z.	c #EE8484",
"`.	c #D12121",
" +	c #9E3737",
".+	c #A81717",
"++	c #9E4444",
"@+	c #AD3D3D",
"#+	c #EF2121",
"$+	c #D91F1F",
"%+	c #D28B8B",
"&+	c #9E2020",
"*+	c #8B2424",
"=+	c #AB3D3D",
"-+	c #E87A7A",
";+	c #C51111",
">+	c #B23535",
",+	c #B52929",
"'+	c #D52626",
")+	c #B51F1F",
"!+	c #C72929",
"~+	c #E71B1B",
"{+	c #CC1E1E",
"]+	c #B52C2C",
"^+	c #D22828",
"/+	c #F02626",
"(+	c #D12828",
"_+	c #9A3939",
":+	c #961111",
"<+	c #902222",
"[+	c #BF7373",
"}+	c #D02121",
"|+	c #BC5F5F",
"1+	c #B61111",
"2+	c #C72121",
"3+	c #D42121",
"4+	c #A13838",
"5+	c #9E4848",
"6+	c #DF2121",
"7+	c #E82727",
"8+	c #EE2424",
"9+	c #E82626",
"0+	c #EE2A2A",
"a+	c #C82323",
"b+	c #8C1111",
"c+	c #A06969",
"d+	c #8E1D1D",
"e+	c #A01E1E",
"f+	c #CA2121",
"g+	c #D62929",
"h+	c #D32020",
"i+	c #A23D3D",
"j+	c #CC2929",
"k+	c #E72626",
"l+	c #E42727",
"m+	c #ED2929",
"n+	c #E02121",
"o+	c #8D1C1C",
"p+	c #8B2323",
"q+	c #D06464",
"r+	c #C93E3E",
"s+	c #A72525",
"t+	c #D62121",
"u+	c #DD2727",
"v+	c #DB2222",
"w+	c #C22727",
"x+	c #9D3030",
"y+	c #9F3939",
"z+	c #D72828",
"A+	c #E92727",
"B+	c #EE2828",
"C+	c #EC2020",
"D+	c #A02525",
"E+	c #964242",
"F+	c #A25B5B",
"G+	c #C45656",
"H+	c #CF4747",
"I+	c #B75B5B",
"J+	c #AE1414",
"K+	c #C32121",
"L+	c #DF1F1F",
"M+	c #E92525",
"N+	c #E32222",
"O+	c #E52121",
"P+	c #EE2525",
"Q+	c #F12626",
"R+	c #ED1E1E",
"S+	c #A61313",
"T+	c #A36060",
"U+	c #9D4F4F",
"V+	c #934D4D",
"W+	c #C91F1F",
"X+	c #CD8A8A",
"Y+	c #9C1E1E",
"Z+	c #AD3E3E",
"`+	c #C62727",
" @	c #E02727",
".@	c #EA2828",
"+@	c #EC2828",
"@@	c #E72727",
"#@	c #D02727",
"$@	c #B73D3D",
"%@	c #801B1B",
"&@	c #892424",
"*@	c #A27373",
"=@	c #A71919",
"-@	c #DB4949",
";@	c #AA2A2A",
">@	c #903535",
",@	c #B51919",
"'@	c #B21212",
")@	c #B01212",
"!@	c #B21919",
"~@	c #8B3333",
"{@	c #922929",
"]@	c #A64D4D",
"^@	c #6E1515",
"/@	c #9A1A1A",
"(@	c #BE1C1C",
"_@	c #D65858",
":@	c #DC7A7A",
"<@	c #D15A5A",
"[@	c #CF4C4C",
"}@	c #C34848",
"|@	c #B32929",
"1@	c #BB3838",
"2@	c #B43434",
"3@	c #8F1B1B",
"4@	c #883838",
"5@	c #823939",
"6@	c #821B1B",
"7@	c #A23434",
"8@	c #A53636",
"9@	c #992A2A",
"0@	c #A74949",
"a@	c #AD4C4C",
"b@	c #B15B5B",
"c@	c #BF7B7B",
"d@	c #AD5959",
"e@	c #841E1E",
"f@	c #681717",
"g@	c #902525",
"h@	c #981D1D",
"i@	c #9C2323",
"j@	c #9A2323",
"k@	c #952A2A",
"l@	c #992929",
"m@	c #A06464",
"n@	c #996363",
"o@	c #8E1717",
"p@	c #832A2A",
"q@	c #7D2A2A",
"r@	c #7B2323",
"s@	c #782222",
"t@	c #731E1E",
"u@	c #702B2B",
"v@	c #982020",
"w@	c #C97878",
"x@	c #BA7070",
"y@	c #852323",
"z@	c #981010",
"A@	c #841010",
"B@	c #8D4343",
"C@	c #9B1C1C",
"D@	c #8B1919",
"E@	c #854949",
"F@	c #874545",
"G@	c #820D0D",
"H@	c #A33D3D",
"I@	c #A13B3B",
"J@	c #790D0D",
"K@	c #824A4A",
"L@	c #824D4D",
"M@	c #814D4D",
"                                                                ",
"                              . +                               ",
"                          @ # $ % & *                           ",
"                        = -         ; >                         ",
"                      , '             ) !                       ",
"                      ~ {             ] ^                       ",
"        / ( _ : < [ } | 1             2 3 4 5 6 7 8 9 0         ",
"      a b c d     e f g h i j k l m n o p q r     s t u v       ",
"    w x             y     z A B B C D     E             F G     ",
"    H             I J   K L M N O P Q R   S T             U     ",
"  V W             X Y Z `  ...+.@.#.$.%.&.*.=.            -.;.  ",
"  >.,.            '.).!.~.{.        ].^./.(._.            :.<.  ",
"    [.          }.|.O 1.2.            3.4.^ 5.G           6.    ",
"    7.8.    9.0.a.b.c.d.                e.f.g.h.i.j.    k.l.    ",
"    m.n.  o.p.q.r.s.t.                    u.v.w.x.y.z.  A.B.    ",
"      C.[ D.    E.F.G.                    H.I.J.    K.L.M.      ",
"        N.O.    P.Q.R.                    S.T.U.    t V.        ",
"      W.X.Y.Z.  u.`. +            .+++    @+#+$+  %+&+*+=+      ",
"    -+4.    ;+>+,+'+)+            !+~+{+]+^+/+(+_+:+    <+[+    ",
"    }+|+      1+2+6 3+4+          5+6+7+8+9+0+a+b+      c+d+    ",
"    F.          e+f+g+h+i+          j+k+l+m+n+o+          p+    ",
"  q+r+            s+t+u+v+w+x+    y+z+A+B+C+D+            E+F+  ",
"  G+H+            I+J+K+L+M+~ N+O+P+Q+R+t+S+T+            U+V+  ",
"    W+            X+Y+  Z+`+ @.@+@@@#@$@  %@              &@*@  ",
"    =@-@            ;@    >@,@'@)@!@~@    {@            ]@^@    ",
"      /@(@_@:@<@[@}@|@1@2@3@4@    5@6@7@8@9@0@a@b@c@d@e@f@      ",
"          g@h@i@j@k@l@S m@            n@o@p@q@r@s@t@u@          ",
"                      v@w@            x@y@                      ",
"                        z@            A@                        ",
"                        B@C@        D@E@                        ",
"                          F@G@H@I@J@K@                          ",
"                              L@M@                              "};
